<svg xmlns="http://www.w3.org/2000/svg" width="612" height="612"><path d="M306 0C136.992 0 0 136.992 0 306s136.992 306 306 306c168.988 0 306-136.992 306-306S475.008 0 306 0zm0 573.75C158.125 573.75 38.25 453.875 38.25 306S158.125 38.25 306 38.25 573.75 158.125 573.75 306 453.875 573.75 306 573.75zm86.751-431.001c-7.478-7.478-19.584-7.478-27.043 0l-146.44 146.44c-4.59 4.59-6.005 10.863-4.953 16.811-1.052 5.929.382 12.221 4.953 16.811l146.44 146.44c7.479 7.459 19.584 7.459 27.043 0 7.478-7.478 7.478-19.584 0-27.043L256.543 306l136.188-136.189c7.479-7.478 7.479-19.584.02-27.062z"/></svg>