<svg xmlns="http://www.w3.org/2000/svg" xmlns:xlink="http://www.w3.org/1999/xlink" width="22" height="14"><defs><path id="a" d="M181 5257.03h5.21c2.11 0 3.54.73 3.54 2.74 0 1.06-.54 1.8-1.5 2.26 1.35.37 2.03 1.39 2.03 2.73 0 2.2-1.91 3.13-3.91 3.13H181zm2.23 4.44h2.67c.86 0 1.5-.38 1.5-1.29 0-1.03-.81-1.24-1.68-1.24h-2.5zm0 4.58h2.81c.97 0 1.8-.3 1.8-1.42 0-1.1-.71-1.55-1.75-1.55h-2.86zm9.97-1.44c.06 1.36.74 1.77 1.97 1.77.89 0 1.6-.15 1.74-.64h1.94c-.62 1.85-1.94 2.26-3.76 2.26-2.53 0-4.1-1.7-4.1-4.11a3.97 3.97 0 0 1 4.1-4.13c2.73 0 4.05 2.44 3.9 4.85zm3.58-1.16c-.2-1.09-.68-2.07-1.75-2.07-1.4 0-1.8 1.47-1.83 2.07zm.92-4.26h-5.54v-1.1h5.54z"/></defs><use fill="#fff" xlink:href="#a" transform="translate(-179 -5256)"/></svg>