<svg xmlns="http://www.w3.org/2000/svg" xmlns:xlink="http://www.w3.org/1999/xlink" width="18" height="20"><defs><path id="a" d="M159.5 5269.82c-2.11 1.86-8.54 1.62-8.54-1.84 0-3.45 4.84-3.5 5.23-3.5.39 0 .46-.11.13-.47-.33-.34-.85-1.02-.24-1.77-1.09.05-4.1-.55-4.1-3.3 0-2.77 2.9-3.95 3.95-3.95h5.2s-.24.2-.78.5c-.55.31-1.57.16-1.57.16s1.41.87 1.41 2.58-.82 2.46-1.87 3.38c-1.04.92-.43 1.46 1.2 2.62 1.63 1.16 2.09 3.73-.02 5.6zm-3.8-14.3c-3.04 0-1.86 6.04.73 6.04 3.44 0 1.65-6.13-.72-6.04zm3.84 12.29c0-1.5-1.42-2.24-2.22-2.85-2.94 0-4.5.79-4.5 2.39s1.15 2.67 3.3 2.67 3.42-.72 3.42-2.21zm4.47-12.78v1.97h1.96v1.02h-1.96v1.97H163v-1.97h-2V5257h2v-1.97z"/></defs><use fill="#fff" xlink:href="#a" transform="translate(-149 -5253)"/></svg>