<svg xmlns="http://www.w3.org/2000/svg" xmlns:xlink="http://www.w3.org/1999/xlink" width="38" height="38" viewBox="0 0 19 19"><defs><path id="a" d="M261 5256.6v12.8c0 .88-.72 1.6-1.6 1.6h-12.8a1.6 1.6 0 0 1-1.6-1.6v-12.8c0-.88.72-1.6 1.6-1.6h12.8c.88 0 1.6.72 1.6 1.6zm-11.2 6.4a3.2 3.2 0 0 0 3.2 3.2 3.2 3.2 0 0 0 3.2-3.2c0-1.76-1.44-3.2-3.2-3.2a3.21 3.21 0 0 0-3.2 3.2zm9.2 6.4c.24 0 .4-.16.4-.4v-6.8h-1.68a4.81 4.81 0 0 1-4.72 5.6 4.81 4.81 0 0 1-4.8-4.8c0-.24 0-.56.08-.8h-1.68v6.8c0 .24.16.4.4.4zm.4-12.4c0-.24-.16-.4-.4-.4h-1.6c-.24 0-.4.16-.4.4v1.6c0 .24.16.4.4.4h1.6c.24 0 .4-.16.4-.4z"/></defs><use fill="#fff" xlink:href="#a" transform="translate(-243 -5253)"/></svg>