<svg xmlns="http://www.w3.org/2000/svg" xmlns:xlink="http://www.w3.org/1999/xlink" width="19" height="18"><defs><path id="a" d="M221.99 5255.02a8 8 0 0 0-3.17 15.32c-.02-.56 0-1.22.14-1.82l1.04-4.37s-.26-.51-.26-1.27c0-1.19.69-2.07 1.55-2.07.73 0 1.08.54 1.08 1.2 0 .73-.47 1.83-.7 2.84-.21.85.42 1.55 1.26 1.55 1.52 0 2.54-1.95 2.54-4.26 0-1.76-1.18-3.07-3.34-3.07a3.8 3.8 0 0 0-3.95 3.83c0 .7.2 1.2.53 1.58.15.17.17.24.11.44l-.16.65c-.05.2-.22.27-.4.2-1.12-.46-1.64-1.69-1.64-3.07 0-2.27 1.92-5 5.73-5 3.07 0 5.09 2.21 5.09 4.59 0 3.14-1.75 5.49-4.34 5.49-.86 0-1.68-.47-1.96-1 0 0-.46 1.85-.56 2.2-.17.61-.5 1.22-.8 1.7a8.03 8.03 0 0 0 10.2-7.68 8 8 0 0 0-8-7.98z"/></defs><use fill="#fff" xlink:href="#a" transform="translate(-212 -5254)"/></svg>