<svg xmlns="http://www.w3.org/2000/svg" xmlns:xlink="http://www.w3.org/1999/xlink" width="19" height="16"><defs><path id="a" d="M135.56 5257.59c-.27.15-1.08.44-1.83.52a3.5 3.5 0 0 0 1.38-1.8 5.36 5.36 0 0 1-2.06.74 3.3 3.3 0 0 0-5.6 3 9.53 9.53 0 0 1-7-3.41 3.3 3.3 0 0 0 1 4.35c-.38.03-1.1-.04-1.44-.37-.02 1.15.53 2.67 2.55 3.22-.4.2-1.08.15-1.38.1.1.97 1.47 2.24 2.95 2.24a5.42 5.42 0 0 1-4.57 1.37 9.92 9.92 0 0 0 5.17 1.45c5.32 0 9.46-4.3 9.23-9.62v-.11a5.68 5.68 0 0 0 1.6-1.68z"/></defs><use fill="#fff" xlink:href="#a" transform="translate(-118 -5255)"/></svg>